<mxfile host="app.diagrams.net" modified="2023-02-04T16:19:35.987Z" agent="5.0 (Windows NT 10.0; Win64; x64) AppleWebKit/537.36 (KHTML, like Gecko) Chrome/109.0.0.0 Safari/537.36 Edg/109.0.1518.78" etag="peTjIVY-WDpBdN1Qsmv_" version="20.8.16" type="github">
  <diagram name="第 1 页" id="6G8240PnQ7N9iXs0-Jo5">
    <mxGraphModel dx="913" dy="732" grid="1" gridSize="10" guides="1" tooltips="1" connect="1" arrows="1" fold="1" page="1" pageScale="1" pageWidth="827" pageHeight="1169" math="1" shadow="0">
      <root>
        <mxCell id="0" />
        <mxCell id="1" parent="0" />
        <mxCell id="2l813UBK1FVhbjwcFtz3-3" value="" style="edgeStyle=orthogonalEdgeStyle;rounded=0;orthogonalLoop=1;jettySize=auto;html=1;" edge="1" parent="1" source="2l813UBK1FVhbjwcFtz3-1" target="2l813UBK1FVhbjwcFtz3-2">
          <mxGeometry relative="1" as="geometry" />
        </mxCell>
        <mxCell id="2l813UBK1FVhbjwcFtz3-1" value="$$X$$" style="rounded=0;whiteSpace=wrap;html=1;" vertex="1" parent="1">
          <mxGeometry x="234" y="380" width="40" height="40" as="geometry" />
        </mxCell>
        <mxCell id="2l813UBK1FVhbjwcFtz3-5" value="" style="edgeStyle=orthogonalEdgeStyle;rounded=0;orthogonalLoop=1;jettySize=auto;html=1;" edge="1" parent="1" source="2l813UBK1FVhbjwcFtz3-2" target="2l813UBK1FVhbjwcFtz3-4">
          <mxGeometry relative="1" as="geometry" />
        </mxCell>
        <mxCell id="2l813UBK1FVhbjwcFtz3-2" value="Self-Attention Layer" style="rounded=0;whiteSpace=wrap;html=1;" vertex="1" parent="1">
          <mxGeometry x="165" y="320" width="180" height="40" as="geometry" />
        </mxCell>
        <mxCell id="2l813UBK1FVhbjwcFtz3-4" value="$$H^{k}_{head}$$" style="rounded=0;whiteSpace=wrap;html=1;" vertex="1" parent="1">
          <mxGeometry x="235" y="260" width="40" height="40" as="geometry" />
        </mxCell>
        <mxCell id="2l813UBK1FVhbjwcFtz3-16" value="" style="edgeStyle=orthogonalEdgeStyle;rounded=0;orthogonalLoop=1;jettySize=auto;html=1;" edge="1" parent="1" source="2l813UBK1FVhbjwcFtz3-17" target="2l813UBK1FVhbjwcFtz3-19">
          <mxGeometry relative="1" as="geometry" />
        </mxCell>
        <mxCell id="2l813UBK1FVhbjwcFtz3-17" value="$$X$$" style="rounded=0;whiteSpace=wrap;html=1;" vertex="1" parent="1">
          <mxGeometry x="189" y="390" width="40" height="40" as="geometry" />
        </mxCell>
        <mxCell id="2l813UBK1FVhbjwcFtz3-18" value="" style="edgeStyle=orthogonalEdgeStyle;rounded=0;orthogonalLoop=1;jettySize=auto;html=1;" edge="1" parent="1" source="2l813UBK1FVhbjwcFtz3-19" target="2l813UBK1FVhbjwcFtz3-20">
          <mxGeometry relative="1" as="geometry" />
        </mxCell>
        <mxCell id="2l813UBK1FVhbjwcFtz3-19" value="Self-Attention Layer" style="rounded=0;whiteSpace=wrap;html=1;" vertex="1" parent="1">
          <mxGeometry x="120" y="330" width="180" height="40" as="geometry" />
        </mxCell>
        <mxCell id="2l813UBK1FVhbjwcFtz3-20" value="$$H^{2}_{head}$$" style="rounded=0;whiteSpace=wrap;html=1;" vertex="1" parent="1">
          <mxGeometry x="190" y="270" width="40" height="40" as="geometry" />
        </mxCell>
        <mxCell id="2l813UBK1FVhbjwcFtz3-21" value="" style="edgeStyle=orthogonalEdgeStyle;rounded=0;orthogonalLoop=1;jettySize=auto;html=1;" edge="1" parent="1" source="2l813UBK1FVhbjwcFtz3-22" target="2l813UBK1FVhbjwcFtz3-24">
          <mxGeometry relative="1" as="geometry" />
        </mxCell>
        <mxCell id="2l813UBK1FVhbjwcFtz3-22" value="$$X$$" style="rounded=0;whiteSpace=wrap;html=1;" vertex="1" parent="1">
          <mxGeometry x="139" y="400" width="40" height="40" as="geometry" />
        </mxCell>
        <mxCell id="2l813UBK1FVhbjwcFtz3-23" value="" style="edgeStyle=orthogonalEdgeStyle;rounded=0;orthogonalLoop=1;jettySize=auto;html=1;" edge="1" parent="1" source="2l813UBK1FVhbjwcFtz3-24" target="2l813UBK1FVhbjwcFtz3-25">
          <mxGeometry relative="1" as="geometry" />
        </mxCell>
        <mxCell id="2l813UBK1FVhbjwcFtz3-24" value="Self-Attention Layer" style="rounded=0;whiteSpace=wrap;html=1;" vertex="1" parent="1">
          <mxGeometry x="70" y="340" width="180" height="40" as="geometry" />
        </mxCell>
        <mxCell id="2l813UBK1FVhbjwcFtz3-36" style="edgeStyle=orthogonalEdgeStyle;rounded=0;orthogonalLoop=1;jettySize=auto;html=1;exitX=0.5;exitY=0;exitDx=0;exitDy=0;entryX=0.5;entryY=0;entryDx=0;entryDy=0;" edge="1" parent="1" source="2l813UBK1FVhbjwcFtz3-25" target="2l813UBK1FVhbjwcFtz3-27">
          <mxGeometry relative="1" as="geometry">
            <mxPoint x="500" y="200" as="targetPoint" />
            <Array as="points">
              <mxPoint x="160" y="240" />
              <mxPoint x="430" y="240" />
              <mxPoint x="430" y="268" />
            </Array>
          </mxGeometry>
        </mxCell>
        <mxCell id="2l813UBK1FVhbjwcFtz3-25" value="$$H^{1}_{head}$$" style="rounded=0;whiteSpace=wrap;html=1;" vertex="1" parent="1">
          <mxGeometry x="140" y="280" width="40" height="40" as="geometry" />
        </mxCell>
        <mxCell id="2l813UBK1FVhbjwcFtz3-26" value="..." style="text;html=1;align=center;verticalAlign=middle;resizable=0;points=[];autosize=1;strokeColor=none;fillColor=none;" vertex="1" parent="1">
          <mxGeometry x="225" y="295" width="30" height="30" as="geometry" />
        </mxCell>
        <mxCell id="2l813UBK1FVhbjwcFtz3-32" value="" style="edgeStyle=orthogonalEdgeStyle;rounded=0;orthogonalLoop=1;jettySize=auto;html=1;" edge="1" parent="1" source="2l813UBK1FVhbjwcFtz3-27" target="2l813UBK1FVhbjwcFtz3-31">
          <mxGeometry relative="1" as="geometry" />
        </mxCell>
        <mxCell id="2l813UBK1FVhbjwcFtz3-27" value="Concat" style="rounded=0;whiteSpace=wrap;html=1;" vertex="1" parent="1">
          <mxGeometry x="395" y="280" width="70" height="45" as="geometry" />
        </mxCell>
        <mxCell id="2l813UBK1FVhbjwcFtz3-35" value="" style="edgeStyle=orthogonalEdgeStyle;rounded=0;orthogonalLoop=1;jettySize=auto;html=1;" edge="1" parent="1" source="2l813UBK1FVhbjwcFtz3-31" target="2l813UBK1FVhbjwcFtz3-33">
          <mxGeometry relative="1" as="geometry" />
        </mxCell>
        <mxCell id="2l813UBK1FVhbjwcFtz3-31" value="Linear" style="rounded=0;whiteSpace=wrap;html=1;" vertex="1" parent="1">
          <mxGeometry x="395" y="340" width="70" height="45" as="geometry" />
        </mxCell>
        <mxCell id="2l813UBK1FVhbjwcFtz3-33" value="$$H$$" style="rounded=0;whiteSpace=wrap;html=1;" vertex="1" parent="1">
          <mxGeometry x="410" y="400" width="40" height="40" as="geometry" />
        </mxCell>
        <mxCell id="2l813UBK1FVhbjwcFtz3-37" value="" style="endArrow=none;html=1;rounded=0;entryX=0.5;entryY=0;entryDx=0;entryDy=0;" edge="1" parent="1" target="2l813UBK1FVhbjwcFtz3-20">
          <mxGeometry width="50" height="50" relative="1" as="geometry">
            <mxPoint x="210" y="240" as="sourcePoint" />
            <mxPoint x="390" y="390" as="targetPoint" />
          </mxGeometry>
        </mxCell>
        <mxCell id="2l813UBK1FVhbjwcFtz3-39" value="" style="endArrow=none;html=1;rounded=0;exitX=0.5;exitY=0;exitDx=0;exitDy=0;" edge="1" parent="1" source="2l813UBK1FVhbjwcFtz3-4">
          <mxGeometry width="50" height="50" relative="1" as="geometry">
            <mxPoint x="340" y="480" as="sourcePoint" />
            <mxPoint x="255" y="240" as="targetPoint" />
          </mxGeometry>
        </mxCell>
      </root>
    </mxGraphModel>
  </diagram>
</mxfile>
